<svg width="266" height="40" viewBox="0 0 266 40" fill="none" xmlns="http://www.w3.org/2000/svg">
<path d="M234.127 7.77758H226.511C226.438 7.77758 226.388 7.70478 226.413 7.63614L229.217 0.091382C229.232 0.0504758 229.271 0.0234375 229.316 0.0234375H236.932C237.005 0.0234375 237.055 0.0962351 237.03 0.164874L234.226 7.70964C234.211 7.75054 234.172 7.77758 234.127 7.77758Z" fill="#ED1818"/>
<path d="M228.631 23.6657H221.013C220.941 23.6657 220.89 23.595 220.914 23.5271L223.609 15.7348C223.624 15.6925 223.663 15.6641 223.708 15.6641H231.326C231.398 15.6641 231.448 15.7348 231.425 15.8027L228.73 23.595C228.715 23.6373 228.676 23.6657 228.631 23.6657Z" fill="#ED1818"/>
<path d="M222.837 39.9215H215.221C215.148 39.9215 215.098 39.8494 215.123 39.7808L218.057 31.7444C218.073 31.7028 218.112 31.6758 218.156 31.6758H225.772C225.845 31.6758 225.896 31.7479 225.871 31.8165L222.936 39.8529C222.92 39.8945 222.882 39.9215 222.837 39.9215Z" fill="#ED1818"/>
<path d="M249.803 7.77758H242.187C242.114 7.77758 242.064 7.70478 242.088 7.63614L244.893 0.091382C244.908 0.0504758 244.947 0.0234375 244.991 0.0234375H252.608C252.68 0.0234375 252.731 0.0962351 252.706 0.164874L249.902 7.70964C249.886 7.75054 249.847 7.77758 249.803 7.77758Z" fill="#ED1818"/>
<path d="M254.119 14.806H248.741C248.668 14.806 248.617 14.7332 248.642 14.6645L250.624 9.33357C250.639 9.29266 250.678 9.26562 250.722 9.26562H256.1C256.173 9.26562 256.224 9.33843 256.199 9.40707L254.217 14.738C254.202 14.7789 254.163 14.806 254.119 14.806Z" fill="#ED1818"/>
<path d="M249.203 30.8411H243.825C243.752 30.8411 243.701 30.7683 243.726 30.6997L245.708 25.3687C245.723 25.3278 245.762 25.3008 245.806 25.3008H251.184C251.257 25.3008 251.308 25.3736 251.283 25.4422L249.301 30.7732C249.286 30.8141 249.247 30.8411 249.203 30.8411Z" fill="#ED1818"/>
<path d="M257.644 22.9193H252.266C252.193 22.9193 252.143 22.8465 252.168 22.7778L254.149 17.4469C254.164 17.4059 254.203 17.3789 254.248 17.3789H259.626C259.698 17.3789 259.749 17.4517 259.724 17.5203L257.743 22.8513C257.727 22.8922 257.689 22.9193 257.644 22.9193Z" fill="#ED1818"/>
<path d="M262.168 7.30818H258.545C258.473 7.30818 258.422 7.23539 258.447 7.16675L259.783 3.57185C259.798 3.53095 259.837 3.50391 259.881 3.50391H263.504C263.577 3.50391 263.627 3.57671 263.602 3.64535L262.266 7.24024C262.251 7.28114 262.212 7.30818 262.168 7.30818Z" fill="#ED1818"/>
<path d="M264.374 13.3313H262.094C262.021 13.3313 261.971 13.2585 261.996 13.1899L262.838 10.9234C262.853 10.8825 262.892 10.8555 262.937 10.8555H265.216C265.289 10.8555 265.34 10.9283 265.315 10.9969L264.472 13.2634C264.457 13.3043 264.418 13.3313 264.374 13.3313Z" fill="#ED1818"/>
<path d="M252.478 37.1715H248.855C248.782 37.1715 248.731 37.0987 248.756 37.03L250.092 33.4351C250.108 33.3942 250.147 33.3672 250.191 33.3672H253.814C253.886 33.3672 253.937 33.44 253.912 33.5086L252.576 37.1035C252.561 37.1444 252.522 37.1715 252.478 37.1715Z" fill="#ED1818"/>
<path d="M259.932 29.4836H257.297C257.224 29.4836 257.174 29.4108 257.199 29.3422L258.172 26.7242C258.187 26.6833 258.226 26.6562 258.27 26.6562H260.905C260.977 26.6562 261.028 26.729 261.003 26.7977L260.03 29.4157C260.015 29.4566 259.976 29.4836 259.932 29.4836Z" fill="#ED1818"/>
<path d="M244.307 23.6657H236.689C236.617 23.6657 236.566 23.595 236.59 23.5271L239.285 15.7348C239.299 15.6925 239.339 15.6641 239.384 15.6641H247.001C247.074 15.6641 247.124 15.7348 247.101 15.8027L244.406 23.595C244.391 23.6373 244.352 23.6657 244.307 23.6657Z" fill="#ED1818"/>
<path d="M238.62 39.9215H231.004C230.932 39.9215 230.881 39.8494 230.906 39.7808L233.841 31.7444C233.856 31.7028 233.895 31.6758 233.939 31.6758H241.555C241.628 31.6758 241.679 31.7479 241.654 31.8165L238.719 39.8529C238.704 39.8945 238.665 39.9215 238.62 39.9215Z" fill="#ED1818"/>
<path d="M233.729 31.6759H226.112C226.04 31.6759 225.989 31.6052 226.013 31.5372L228.715 23.7387C228.73 23.6964 228.769 23.668 228.814 23.668H236.432C236.504 23.668 236.555 23.7387 236.531 23.8066L233.829 31.6052C233.814 31.6475 233.774 31.6759 233.729 31.6759Z" fill="#ED1818"/>
<path d="M239.224 15.6668H231.607C231.534 15.6668 231.484 15.5953 231.508 15.5274L234.21 7.83565C234.225 7.79405 234.264 7.76562 234.308 7.76562H241.926C241.998 7.76562 242.049 7.83704 242.024 7.90498L239.323 15.5967C239.308 15.6383 239.269 15.6668 239.224 15.6668Z" fill="#ED1818"/>
<path d="M14.2291 0H28.8007C33.6769 0 35.9933 3.60182 34.2544 8.47728L31.7051 15.6248C29.9662 20.5009 25.0803 24.1021 20.2042 24.1021H14.3865L8.75392 39.8932H0L14.2291 0ZM22.9511 15.6248L25.5005 8.47728H19.9601L17.4108 15.6248H22.9511Z" fill="#0A0A0A"/>
<path d="M49.7999 0H55.8949C60.7704 0 63.0875 3.60182 61.3486 8.47728L53.1674 31.4159C51.4285 36.2921 46.5427 39.8932 41.6665 39.8932H35.5715C30.696 39.8932 28.3789 36.2921 30.1178 31.4159L38.299 8.47728C40.0379 3.60113 44.9237 0 49.7999 0ZM44.4121 31.4159L52.5933 8.47728H47.0529L38.8717 31.4159H44.4121Z" fill="#0A0A0A"/>
<path d="M70.3551 0H84.9267C89.8029 0 92.1193 3.60182 90.3804 8.47728L82.1992 31.4159C80.4603 36.2921 75.5744 39.8932 70.6983 39.8932H56.126L70.3551 0ZM73.4445 31.4159L81.6258 8.47728H76.0854L67.9042 31.4159H73.4445Z" fill="#0A0A0A"/>
<path d="M99.3873 0H108.141L93.9121 39.8932H85.1582L99.3873 0Z" fill="#0A0A0A"/>
<path d="M137.729 0L126.524 31.4159C124.785 36.2921 119.899 39.8932 115.023 39.8932H108.928C104.052 39.8932 101.735 36.2921 103.474 31.4159L114.68 0H123.434L112.229 31.4159H117.769L128.975 0H137.729H137.729Z" fill="#0A0A0A"/>
<path d="M144.267 0H153.02L154.572 8.69915L162.274 0H171.028L156.799 39.8932H148.044L155.791 18.1741L150.518 24.1027H147.582L146.539 18.1741L138.792 39.8932H130.038L144.267 0H144.267Z" fill="#0A0A0A"/>
<path d="M192.691 0H185.088L183.17 5.16319H177.941L179.763 0H178.12L163.891 39.8925H172.645L178.277 24.1021H184.095C188.971 24.1021 193.857 20.5002 195.596 15.6248L198.145 8.47728C199.884 3.60113 197.568 0 192.691 0ZM186.842 15.6248H181.301L183.85 8.47728H189.391L186.842 15.6248Z" fill="#ED1818"/>
<path d="M212.158 7.83526L209.503 15.6248H219.504L216.586 23.6743H206.585L203.869 31.7363H213.636L210.507 40H191.984L202.627 10.3049H207.78L209.703 5.13268H204.481L206.32 0H211.516L209.693 5.16319H214.922L216.841 0H225.27L222.353 7.83526H212.158Z" fill="#ED1818"/>
</svg>
