<svg width="266" height="40" viewBox="0 0 266 40" fill="none" xmlns="http://www.w3.org/2000/svg">
<path d="M234.078 7.77744H226.463C226.39 7.77744 226.34 7.70464 226.365 7.636L229.169 0.0913807C229.184 0.0504753 229.223 0.0234375 229.267 0.0234375H236.882C236.955 0.0234375 237.005 0.0962337 236.98 0.164872L234.176 7.70948C234.161 7.75039 234.122 7.77744 234.078 7.77744Z" fill="#E01919"/>
<path d="M228.581 23.6695H220.965C220.893 23.6695 220.843 23.5988 220.866 23.5308L223.561 15.7387C223.575 15.6964 223.615 15.668 223.66 15.668H231.276C231.348 15.668 231.398 15.7387 231.375 15.8066L228.68 23.5988C228.666 23.6411 228.626 23.6695 228.581 23.6695Z" fill="#E01919"/>
<path d="M222.79 39.9213H215.175C215.102 39.9213 215.052 39.8492 215.077 39.7806L218.011 31.7444C218.026 31.7028 218.065 31.6758 218.109 31.6758H225.724C225.797 31.6758 225.847 31.7479 225.822 31.8165L222.888 39.8527C222.873 39.8943 222.834 39.9213 222.79 39.9213Z" fill="#E01919"/>
<path d="M249.75 7.77744H242.135C242.062 7.77744 242.012 7.70464 242.037 7.636L244.841 0.0913807C244.856 0.0504753 244.895 0.0234375 244.939 0.0234375H252.554C252.626 0.0234375 252.677 0.0962337 252.652 0.164872L249.848 7.70948C249.833 7.75039 249.794 7.77744 249.75 7.77744Z" fill="#E01919"/>
<path d="M254.065 14.8059H248.688C248.615 14.8059 248.564 14.7331 248.589 14.6644L250.571 9.33357C250.586 9.29266 250.625 9.26562 250.669 9.26562H256.046C256.119 9.26562 256.169 9.33842 256.144 9.40705L254.163 14.7379C254.148 14.7788 254.109 14.8059 254.065 14.8059Z" fill="#E01919"/>
<path d="M249.149 30.841H243.772C243.699 30.841 243.648 30.7682 243.673 30.6996L245.655 25.3687C245.67 25.3278 245.709 25.3008 245.753 25.3008H251.13C251.203 25.3008 251.253 25.3736 251.228 25.4422L249.247 30.7731C249.232 30.814 249.193 30.841 249.149 30.841Z" fill="#E01919"/>
<path d="M257.589 22.9153H252.212C252.14 22.9153 252.089 22.8425 252.114 22.7738L254.095 17.4429C254.11 17.402 254.149 17.375 254.193 17.375H259.57C259.643 17.375 259.694 17.4478 259.669 17.5164L257.688 22.8473C257.672 22.8882 257.634 22.9153 257.589 22.9153Z" fill="#E01919"/>
<path d="M262.112 7.30811H258.491C258.418 7.30811 258.367 7.23531 258.392 7.16667L259.728 3.57185C259.743 3.53094 259.782 3.50391 259.826 3.50391H263.448C263.521 3.50391 263.572 3.5767 263.547 3.64534L262.211 7.24016C262.196 7.28107 262.157 7.30811 262.112 7.30811Z" fill="#E01919"/>
<path d="M264.317 13.3313H262.037C261.965 13.3313 261.914 13.2585 261.939 13.1899L262.781 10.9234C262.797 10.8825 262.835 10.8555 262.88 10.8555H265.159C265.232 10.8555 265.282 10.9283 265.257 10.9969L264.415 13.2633C264.4 13.3043 264.361 13.3313 264.317 13.3313Z" fill="#E01919"/>
<path d="M252.424 37.1714H248.802C248.729 37.1714 248.679 37.0986 248.704 37.0299L250.039 33.4351C250.055 33.3942 250.094 33.3672 250.138 33.3672H253.76C253.833 33.3672 253.883 33.44 253.858 33.5086L252.522 37.1034C252.507 37.1443 252.468 37.1714 252.424 37.1714Z" fill="#E01919"/>
<path d="M259.877 29.4836H257.243C257.17 29.4836 257.119 29.4108 257.144 29.3421L258.117 26.7242C258.132 26.6833 258.171 26.6562 258.215 26.6562H260.849C260.922 26.6562 260.973 26.7291 260.948 26.7977L259.975 29.4156C259.96 29.4565 259.921 29.4836 259.877 29.4836Z" fill="#E01919"/>
<path d="M244.254 23.6695H236.638C236.566 23.6695 236.515 23.5988 236.539 23.5308L239.233 15.7387C239.248 15.6964 239.287 15.668 239.333 15.668H246.948C247.021 15.668 247.071 15.7387 247.048 15.8066L244.353 23.5988C244.339 23.6411 244.299 23.6695 244.254 23.6695Z" fill="#E01919"/>
<path d="M238.569 39.9213H230.954C230.882 39.9213 230.831 39.8492 230.856 39.7806L233.79 31.7444C233.806 31.7028 233.844 31.6758 233.889 31.6758H241.503C241.576 31.6758 241.627 31.7479 241.602 31.8165L238.667 39.8527C238.652 39.8943 238.613 39.9213 238.569 39.9213Z" fill="#E01919"/>
<path d="M233.68 31.6757H226.064C225.992 31.6757 225.941 31.605 225.965 31.5371L228.667 23.7387C228.681 23.6964 228.721 23.668 228.766 23.668H236.382C236.454 23.668 236.505 23.7387 236.481 23.8066L233.779 31.605C233.764 31.6473 233.725 31.6757 233.68 31.6757Z" fill="#E01919"/>
<path d="M239.173 15.6666H231.557C231.485 15.6666 231.434 15.5952 231.458 15.5272L234.16 7.83565C234.174 7.79405 234.214 7.76562 234.258 7.76562H241.874C241.946 7.76562 241.997 7.83704 241.972 7.90498L239.271 15.5966C239.257 15.6382 239.217 15.6666 239.173 15.6666Z" fill="#E01919"/>
<path d="M14.2261 0H28.7946C33.6697 0 35.9856 3.60175 34.2471 8.47712L31.6983 15.6245C29.9598 20.5005 25.075 24.1016 20.1999 24.1016H14.3834L8.75206 39.8925H0L14.2261 0ZM22.9463 15.6245L25.4951 8.47712H19.9559L17.4071 15.6245H22.9463Z" fill="white"/>
<path d="M49.7888 0H55.8825C60.7569 0 63.0735 3.60175 61.335 8.47712L53.1555 31.4153C51.417 36.2914 46.5322 39.8925 41.6571 39.8925H35.5634C30.6889 39.8925 28.3723 36.2914 30.1108 31.4153L38.2903 8.47712C40.0288 3.60106 44.9136 0 49.7888 0ZM44.4028 31.4153L52.5823 8.47712H47.0431L38.8636 31.4153H44.4028Z" fill="white"/>
<path d="M70.3394 0H84.9079C89.783 0 92.0989 3.60175 90.3604 8.47712L82.1809 31.4153C80.4424 36.2914 75.5576 39.8925 70.6825 39.8925H56.1133L70.3394 0ZM73.4289 31.4153L81.6084 8.47712H76.0692L67.8897 31.4153H73.4289Z" fill="white"/>
<path d="M99.3667 0H108.119L93.8927 39.8925H85.1406L99.3667 0Z" fill="white"/>
<path d="M137.699 0L126.495 31.4153C124.757 36.2914 119.872 39.8925 114.997 39.8925H108.903C104.028 39.8925 101.712 36.2914 103.451 31.4153L114.654 0H123.407L112.204 31.4153H117.743L128.946 0H137.698H137.699Z" fill="white"/>
<path d="M144.236 0H152.988L154.54 8.69898L162.239 0H170.992L156.766 39.8925H148.013L155.758 18.1738L150.487 24.1023H147.551L146.508 18.1738L138.763 39.8925H130.011L144.237 0H144.236Z" fill="white"/>
<path d="M192.65 0H185.049L183.131 5.16309H177.903L179.724 0H178.082L163.855 39.8918H172.608L178.239 24.1016H184.055C188.93 24.1016 193.815 20.4998 195.554 15.6245L198.103 8.47712C199.841 3.60106 197.525 0 192.65 0ZM186.802 15.6245H181.262L183.811 8.47712H189.351L186.802 15.6245Z" fill="#E01919"/>
<path d="M212.113 7.83512L209.457 15.6245H219.456L216.54 23.6738H206.541L203.826 31.7356H213.591L210.461 39.9992H191.943L202.584 10.3047H207.736L209.658 5.13259H204.437L206.276 0H211.471L209.649 5.16309H214.876L216.795 0H225.221L222.305 7.83512H212.113Z" fill="#E01919"/>
</svg>
